# xmcd CD database file
#
# Track frame offsets:
#	150
#	33357
#	60032
#	90032
#	124535
#	148660
#	154025
#	190515
#	213702
#	234015
#	265652
#	288625
#
# Disc length: 4124 seconds
#
# Revision: 0
# Processed by: cddbd v1.5.2PL0 Copyright (c) Steve Scherf et al.
# Submitted via: CDex 1.51
#
DISCID=91101a0c
DTITLE=Soulive - Next
DYEAR=2002
DGENRE=Jazz
TTITLE0=Tuesday Night's Squad
TTITLE1=Flurries
TTITLE2=Liquid
TTITLE3=Kalen
TTITLE4=Clap
TTITLE5=Interlude
TTITLE6=Nay-Nay
TTITLE7=I Don't Know
TTITLE8=Whatever it is
TTITLE9=Alkime
TTITLE10=E.D. Hambone
TTITLE11=Bridge to Bama - Hi Tek Remix
EXTD=YEAR: 2002
EXTT0=
EXTT1=
EXTT2=
EXTT3=
EXTT4=
EXTT5=
EXTT6=
EXTT7=
EXTT8=
EXTT9=
EXTT10=
EXTT11=
PLAYORDER=
